<svg xmlns="http://www.w3.org/2000/svg" version="1.1" xmlns:xlink="http://www.w3.org/1999/xlink" width="28" height="28" x="0" y="0" viewBox="0 0 24 24" style="enable-background:new 0 0 512 512" xml:space="preserve" class=""><g><g data-name="Flat Color"><path fill="#f45662" d="M15 4H9a1 1 0 0 1 0-2h6a1 1 0 0 1 0 2zM15 22H9a4 4 0 0 1-4-4V6h14v12a4 4 0 0 1-4 4z" opacity="1" data-original="#e63946" class=""></path><path fill="#ba2b3b" d="M20 8H4a1 1 0 0 1 0-2h16a1 1 0 0 1 0 2z" opacity="1" data-original="#c9273a" class=""></path><g fill="#edebea"><path d="M10 18a1 1 0 0 1-1-1v-6a1 1 0 0 1 2 0v6a1 1 0 0 1-1 1zM14 18a1 1 0 0 1-1-1v-6a1 1 0 0 1 2 0v6a1 1 0 0 1-1 1z" fill="#edebea" opacity="1" data-original="#edebea" class=""></path></g></g></g></svg>